<svg xmlns="http://www.w3.org/2000/svg" xmlns:xlink="http://www.w3.org/1999/xlink" width="1600" zoomAndPan="magnify" viewBox="0 0 1200 374.999991" height="500" preserveAspectRatio="xMidYMid meet" version="1.2"><defs><clipPath id="4e61ab1d06"><path d="M 90.078125 85.679688 L 143.265625 85.679688 L 143.265625 249.570312 L 90.078125 249.570312 Z M 90.078125 85.679688 "/></clipPath><clipPath id="c8135b08ae"><path d="M 227.371094 85.679688 L 280.5625 85.679688 L 280.5625 249.570312 L 227.371094 249.570312 Z M 227.371094 85.679688 "/></clipPath><clipPath id="b8eb798837"><path d="M 116.664062 141.035156 L 280.554688 141.035156 L 280.554688 194.226562 L 116.664062 194.226562 Z M 116.664062 141.035156 "/></clipPath><clipPath id="09986a9ffc"><path d="M 94.96875 91.5625 L 148.160156 91.5625 L 148.160156 255.449219 L 94.96875 255.449219 Z M 94.96875 91.5625 "/></clipPath><clipPath id="27753d6593"><path d="M 232.265625 91.5625 L 285.457031 91.5625 L 285.457031 255.449219 L 232.265625 255.449219 Z M 232.265625 91.5625 "/></clipPath><clipPath id="db0737cb8e"><path d="M 121.558594 146.914062 L 285.449219 146.914062 L 285.449219 200.105469 L 121.558594 200.105469 Z M 121.558594 146.914062 "/></clipPath><clipPath id="5290941520"><path d="M 103.726562 99.386719 L 156.917969 99.386719 L 156.917969 263.277344 L 103.726562 263.277344 Z M 103.726562 99.386719 "/></clipPath><clipPath id="35c6e2bd3b"><path d="M 241.023438 99.386719 L 294.210938 99.386719 L 294.210938 263.277344 L 241.023438 263.277344 Z M 241.023438 99.386719 "/></clipPath><clipPath id="1050ce5552"><path d="M 130.316406 154.742188 L 294.207031 154.742188 L 294.207031 207.933594 L 130.316406 207.933594 Z M 130.316406 154.742188 "/></clipPath></defs><g id="bddb05b2a0"><g style="fill:#0b1320;fill-opacity:1;"><g transform="translate(350.335776, 224.351654)"><path style="stroke:none" d="M 89.96875 -11.171875 C 89.96875 -5.617188 93.816406 -2.71875 101.515625 -2.46875 C 101.835938 -2.46875 102 -2.300781 102 -1.96875 L 102 -0.5 C 102 -0.164062 101.835938 0 101.515625 0 L 62.234375 0 C 61.910156 0 61.75 -0.164062 61.75 -0.5 L 61.75 -1.96875 C 61.75 -2.300781 62.773438 -2.46875 64.828125 -2.46875 C 66.890625 -2.46875 69.238281 -2.921875 71.875 -3.828125 C 75.90625 -5.140625 77.921875 -7.363281 77.921875 -10.5 L 77.921875 -39.953125 C 77.921875 -40.359375 77.859375 -40.625 77.734375 -40.75 C 77.609375 -40.875 77.34375 -40.9375 76.9375 -40.9375 L 28.28125 -40.9375 C 27.863281 -40.9375 27.59375 -40.875 27.46875 -40.75 C 27.351562 -40.625 27.296875 -40.359375 27.296875 -39.953125 L 27.296875 -9.875 C 27.296875 -4.9375 30.9375 -2.46875 38.21875 -2.46875 C 38.550781 -2.46875 38.71875 -2.300781 38.71875 -1.96875 L 38.71875 -0.5 C 38.71875 -0.164062 38.570312 0 38.28125 0 L 4.203125 0 C 3.867188 0 3.703125 -0.164062 3.703125 -0.5 L 3.703125 -1.96875 C 3.703125 -2.300781 4.113281 -2.46875 4.9375 -2.46875 C 11.8125 -2.46875 15.25 -5.410156 15.25 -11.296875 L 15.25 -77.1875 C 15.25 -82 12.390625 -84.550781 6.671875 -84.84375 C 5.804688 -84.882812 5.375 -85.066406 5.375 -85.390625 L 5.375 -86.5625 C 5.375 -86.894531 5.515625 -87.0625 5.796875 -87.0625 L 36.796875 -87.0625 C 37.128906 -87.0625 37.296875 -86.894531 37.296875 -86.5625 L 37.296875 -85.390625 C 37.296875 -85.140625 36.90625 -85.015625 36.125 -85.015625 C 30.238281 -85.015625 27.296875 -82.113281 27.296875 -76.3125 L 27.296875 -47.796875 C 27.296875 -47.378906 27.351562 -47.109375 27.46875 -46.984375 C 27.59375 -46.859375 27.863281 -46.796875 28.28125 -46.796875 L 76.9375 -46.796875 C 77.34375 -46.796875 77.609375 -46.859375 77.734375 -46.984375 C 77.859375 -47.109375 77.921875 -47.378906 77.921875 -47.796875 L 77.921875 -77.296875 C 77.835938 -77.671875 77.785156 -78.007812 77.765625 -78.3125 C 77.742188 -78.625 77.671875 -79.113281 77.546875 -79.78125 C 77.265625 -81.175781 75.804688 -82.316406 73.171875 -83.203125 C 70.535156 -84.085938 67.550781 -84.65625 64.21875 -84.90625 C 63.882812 -84.90625 63.71875 -85.066406 63.71875 -85.390625 L 63.71875 -86.5625 C 63.71875 -86.894531 63.863281 -87.0625 64.15625 -87.0625 L 99.78125 -87.0625 C 100.101562 -87.0625 100.265625 -86.894531 100.265625 -86.5625 L 100.265625 -85.390625 C 100.265625 -85.140625 99.875 -85.015625 99.09375 -85.015625 C 93.007812 -85.015625 89.96875 -82.113281 89.96875 -76.3125 Z M 89.96875 -11.171875 "/></g></g><g style="fill:#0b1320;fill-opacity:1;"><g transform="translate(452.860794, 224.351654)"><path style="stroke:none" d="M 64.578125 -55.5625 C 65.035156 -55.445312 65.265625 -55.160156 65.265625 -54.703125 C 65.265625 -54.253906 65.222656 -53.957031 65.140625 -53.8125 C 65.054688 -53.664062 64.859375 -53.539062 64.546875 -53.4375 C 64.242188 -53.332031 63.8125 -53.238281 63.25 -53.15625 C 62.695312 -53.070312 61.820312 -52.914062 60.625 -52.6875 C 59.4375 -52.46875 58.367188 -51.632812 57.421875 -50.1875 C 56.472656 -48.75 55.460938 -46.753906 54.390625 -44.203125 L 25.375 27.71875 L 21.359375 36.25 C 20.328125 38.425781 18.164062 39.515625 14.875 39.515625 C 13.4375 39.515625 12.285156 39.039062 11.421875 38.09375 C 10.554688 37.144531 10.125 36.019531 10.125 34.71875 C 10.125 33.425781 10.441406 32.484375 11.078125 31.890625 C 11.722656 31.296875 12.476562 30.8125 13.34375 30.4375 C 14.207031 30.070312 15.097656 29.734375 16.015625 29.421875 C 16.941406 29.109375 17.984375 28.40625 19.140625 27.3125 C 20.296875 26.226562 20.972656 25.421875 21.171875 24.890625 C 28.085938 9.410156 31.546875 1.316406 31.546875 0.609375 C 31.546875 -0.0859375 31.132812 -0.945312 30.3125 -1.96875 L 9.9375 -44.515625 C 8.414062 -48.671875 5.800781 -51.347656 2.09375 -52.546875 C 1.8125 -52.628906 1.460938 -52.691406 1.046875 -52.734375 C -0.679688 -52.898438 -1.546875 -53.410156 -1.546875 -54.265625 C -1.546875 -55.128906 -1.050781 -55.5625 -0.0625 -55.5625 L 27.421875 -55.5625 C 27.742188 -55.5625 27.90625 -55.242188 27.90625 -54.609375 C 27.90625 -53.972656 27.617188 -53.539062 27.046875 -53.3125 C 26.472656 -53.09375 25.195312 -52.984375 23.21875 -52.984375 C 20.050781 -52.984375 18.46875 -51.742188 18.46875 -49.265625 L 19.015625 -47.796875 L 35.015625 -13.515625 C 35.835938 -11.421875 36.660156 -11.484375 37.484375 -13.703125 C 37.566406 -13.910156 38.078125 -15.25 39.015625 -17.71875 C 44.617188 -31.914062 47.757812 -40.125 48.4375 -42.34375 C 49.113281 -44.570312 49.453125 -46.242188 49.453125 -47.359375 C 49.453125 -48.472656 48.863281 -49.644531 47.6875 -50.875 C 46.519531 -52.113281 44.914062 -52.734375 42.875 -52.734375 C 40.84375 -52.734375 39.828125 -53.328125 39.828125 -54.515625 C 39.828125 -55.210938 40.28125 -55.5625 41.1875 -55.5625 Z M 64.578125 -55.5625 "/></g></g><g style="fill:#0b1320;fill-opacity:1;"><g transform="translate(516.493978, 224.351654)"><path style="stroke:none" d="M 50.8125 -6.484375 C 45.132812 -1.046875 38.753906 1.671875 31.671875 1.671875 C 29.117188 1.671875 25.640625 1.195312 21.234375 0.25 C 20.535156 0.25 20.15625 0.492188 20.09375 0.984375 C 20.03125 1.484375 19.976562 2 19.9375 2.53125 L 19.9375 28.890625 C 19.9375 31.984375 21.726562 34.046875 25.3125 35.078125 C 26.875 35.484375 28.332031 35.78125 29.6875 35.96875 C 31.050781 36.15625 31.925781 36.328125 32.3125 36.484375 C 32.707031 36.648438 32.90625 36.96875 32.90625 37.4375 C 32.90625 37.914062 32.703125 38.195312 32.296875 38.28125 L 1.359375 38.28125 C 0.941406 38.195312 0.734375 37.910156 0.734375 37.421875 C 0.734375 36.679688 1.703125 36.1875 3.640625 35.9375 C 8.085938 35.28125 10.3125 32.929688 10.3125 28.890625 L 10.3125 -45.140625 C 10.3125 -46.867188 9.363281 -48.0625 7.46875 -48.71875 C 6.644531 -49.007812 5.757812 -49.242188 4.8125 -49.421875 C 3.863281 -49.609375 3.113281 -49.785156 2.5625 -49.953125 C 2.007812 -50.117188 1.660156 -50.269531 1.515625 -50.40625 C 1.367188 -50.550781 1.296875 -50.859375 1.296875 -51.328125 C 1.296875 -51.804688 1.601562 -52.210938 2.21875 -52.546875 L 17.96875 -60.078125 C 18.300781 -60.242188 18.628906 -60.328125 18.953125 -60.328125 C 19.609375 -60.328125 19.9375 -59.832031 19.9375 -58.84375 L 19.9375 -51 C 19.9375 -50.550781 20.171875 -50.328125 20.640625 -50.328125 C 21.117188 -50.328125 22.265625 -50.921875 24.078125 -52.109375 C 29.304688 -55.484375 34.738281 -57.171875 40.375 -57.171875 C 44.332031 -57.171875 47.957031 -55.566406 51.25 -52.359375 C 55.570312 -48.160156 58.453125 -42.316406 59.890625 -34.828125 C 60.304688 -32.679688 60.515625 -30.40625 60.515625 -28 C 60.515625 -25.59375 60.125 -23.050781 59.34375 -20.375 C 57.769531 -15.0625 54.925781 -10.429688 50.8125 -6.484375 Z M 33.15625 -50.75 C 27.5625 -50.75 23.15625 -49.144531 19.9375 -45.9375 L 19.9375 -11.234375 C 19.9375 -9.179688 20.289062 -7.84375 21 -7.21875 C 22.800781 -5.65625 25.578125 -4.441406 29.328125 -3.578125 C 36.734375 -1.890625 42.5 -3.660156 46.625 -8.890625 C 49.539062 -12.640625 51 -17.164062 51 -22.46875 C 51 -32.800781 48.675781 -40.539062 44.03125 -45.6875 C 41.226562 -48.820312 37.601562 -50.507812 33.15625 -50.75 Z M 33.15625 -50.75 "/></g></g><g style="fill:#0b1320;fill-opacity:1;"><g transform="translate(580.62103, 224.351654)"><path style="stroke:none" d="M 14.265625 -32.546875 C 13.566406 -32.546875 13.21875 -31.039062 13.21875 -28.03125 C 13.21875 -21.65625 15.109375 -16.304688 18.890625 -11.984375 C 22.679688 -7.660156 27.382812 -5.5 33 -5.5 C 38.625 -5.5 44.023438 -7.925781 49.203125 -12.78125 C 49.285156 -12.863281 49.390625 -12.90625 49.515625 -12.90625 L 49.828125 -12.90625 C 50.078125 -12.90625 50.3125 -12.707031 50.53125 -12.3125 C 50.757812 -11.925781 50.976562 -11.671875 51.1875 -11.546875 C 46.414062 -5.742188 40.796875 -1.726562 34.328125 0.5 C 32.109375 1.28125 29.597656 1.671875 26.796875 1.671875 C 23.992188 1.671875 21.148438 0.898438 18.265625 -0.640625 C 15.390625 -2.191406 12.921875 -4.222656 10.859375 -6.734375 C 6.503906 -11.960938 4.328125 -18.472656 4.328125 -26.265625 C 4.328125 -34.066406 6.703125 -41.175781 11.453125 -47.59375 C 16.203125 -54.019531 22.738281 -57.234375 31.0625 -57.234375 C 37.03125 -57.234375 41.90625 -54.566406 45.6875 -49.234375 C 49.476562 -43.910156 51.375 -39.226562 51.375 -35.1875 C 51.375 -33.425781 50.941406 -32.546875 50.078125 -32.546875 Z M 14.9375 -38.46875 C 14.9375 -37.6875 15.304688 -37.296875 16.046875 -37.296875 L 39.328125 -37.296875 C 40.398438 -37.296875 40.9375 -37.929688 40.9375 -39.203125 C 40.9375 -42.171875 39.609375 -45.207031 36.953125 -48.3125 C 34.296875 -51.425781 31.382812 -52.984375 28.21875 -52.984375 C 25.132812 -52.984375 22.320312 -51.582031 19.78125 -48.78125 C 17.25 -45.976562 15.632812 -42.785156 14.9375 -39.203125 Z M 14.9375 -38.46875 "/></g></g><g style="fill:#0b1320;fill-opacity:1;"><g transform="translate(634.87079, 224.351654)"><path style="stroke:none" d="M 41.859375 -44.265625 C 41.367188 -44.347656 40.648438 -44.617188 39.703125 -45.078125 C 36.285156 -46.640625 33.609375 -47.421875 31.671875 -47.421875 C 29.734375 -47.421875 27.703125 -46.21875 25.578125 -43.8125 C 23.460938 -41.40625 22.40625 -39.234375 22.40625 -37.296875 L 22.40625 -9.390625 C 22.40625 -6.296875 24.195312 -4.234375 27.78125 -3.203125 C 29.34375 -2.796875 30.800781 -2.5 32.15625 -2.3125 C 33.519531 -2.125 34.394531 -1.945312 34.78125 -1.78125 C 35.175781 -1.625 35.375 -1.304688 35.375 -0.828125 C 35.375 -0.359375 35.171875 -0.0820312 34.765625 0 L 3.828125 0 C 3.410156 -0.0820312 3.203125 -0.367188 3.203125 -0.859375 C 3.203125 -1.597656 4.171875 -2.09375 6.109375 -2.34375 C 10.554688 -3 12.78125 -5.347656 12.78125 -9.390625 L 12.78125 -42.046875 C 12.78125 -43.773438 11.832031 -44.96875 9.9375 -45.625 C 9.113281 -45.914062 8.226562 -46.15625 7.28125 -46.34375 C 6.332031 -46.53125 5.582031 -46.703125 5.03125 -46.859375 C 4.476562 -47.023438 4.128906 -47.179688 3.984375 -47.328125 C 3.835938 -47.472656 3.765625 -47.78125 3.765625 -48.25 C 3.765625 -48.726562 4.070312 -49.128906 4.6875 -49.453125 L 20.4375 -56.859375 C 20.925781 -57.109375 21.234375 -57.234375 21.359375 -57.234375 C 22.054688 -57.234375 22.40625 -56.738281 22.40625 -55.75 L 22.40625 -45.75 C 22.40625 -45.257812 22.53125 -45.015625 22.78125 -45.015625 C 23.113281 -45.015625 23.957031 -45.976562 25.3125 -47.90625 C 29.226562 -53.382812 32.460938 -56.125 35.015625 -56.125 C 36.453125 -56.125 38.660156 -55.546875 41.640625 -54.390625 C 44.628906 -53.242188 46.125 -52.28125 46.125 -51.5 C 46.125 -50.550781 45.648438 -49.109375 44.703125 -47.171875 C 43.753906 -45.234375 42.804688 -44.265625 41.859375 -44.265625 Z M 41.859375 -44.265625 "/></g></g><g style="fill:#0b1320;fill-opacity:1;"><g transform="translate(677.823399, 224.351654)"><path style="stroke:none" d="M 0.4375 -0.5 L 0.4375 -2.21875 C 0.4375 -2.550781 0.597656 -2.71875 0.921875 -2.71875 L 2.28125 -2.71875 C 4.007812 -2.84375 5.78125 -2.914062 7.59375 -2.9375 C 9.40625 -2.957031 11.050781 -3.171875 12.53125 -3.578125 C 15.90625 -4.566406 17.59375 -7.035156 17.59375 -10.984375 L 17.59375 -76.0625 C 17.59375 -80.144531 15.1875 -82.738281 10.375 -83.84375 C 9.007812 -84.132812 7.628906 -84.382812 6.234375 -84.59375 L 4.9375 -84.59375 C 4.613281 -84.59375 4.453125 -84.753906 4.453125 -85.078125 L 4.453125 -86.5625 C 4.453125 -86.894531 4.613281 -87.0625 4.9375 -87.0625 L 63.65625 -87.0625 C 64.394531 -87.0625 64.929688 -86.925781 65.265625 -86.65625 C 65.597656 -86.382812 65.800781 -85.800781 65.875 -84.90625 L 67 -67 C 67 -66.582031 66.6875 -66.375 66.0625 -66.375 C 65.445312 -66.375 64.992188 -66.5625 64.703125 -66.9375 C 64.460938 -67.34375 64.144531 -68.84375 63.75 -71.4375 C 63.363281 -74.03125 62.65625 -76.191406 61.625 -77.921875 C 60.59375 -79.648438 58.78125 -80.738281 56.1875 -81.1875 L 30.4375 -81.1875 C 29.90625 -81.1875 29.640625 -80.921875 29.640625 -80.390625 L 29.640625 -48.46875 C 29.640625 -48.0625 29.84375 -47.859375 30.25 -47.859375 L 51.625 -47.859375 C 57.132812 -47.859375 59.890625 -51.066406 59.890625 -57.484375 C 59.890625 -57.816406 60.054688 -57.984375 60.390625 -57.984375 L 61.875 -57.984375 C 62.195312 -57.984375 62.359375 -57.816406 62.359375 -57.484375 L 62.359375 -31.0625 C 62.359375 -30.726562 62.195312 -30.5625 61.875 -30.5625 L 60.390625 -30.5625 C 60.054688 -30.5625 59.890625 -30.726562 59.890625 -31.0625 C 59.890625 -37.15625 58.117188 -40.671875 54.578125 -41.609375 C 53.585938 -41.859375 52.539062 -41.984375 51.4375 -41.984375 L 30.25 -41.984375 C 29.84375 -41.984375 29.640625 -41.78125 29.640625 -41.375 L 29.640625 -11.296875 C 29.640625 -8.210938 31.054688 -6.460938 33.890625 -6.046875 C 34.710938 -5.921875 35.578125 -5.859375 36.484375 -5.859375 L 57.046875 -5.859375 C 61.285156 -5.859375 64.582031 -7.734375 66.9375 -11.484375 C 68.625 -14.160156 69.648438 -17.226562 70.015625 -20.6875 C 70.140625 -21.832031 70.757812 -22.40625 71.875 -22.40625 C 72.363281 -22.40625 72.609375 -22.140625 72.609375 -21.609375 L 70.578125 -0.859375 C 70.328125 -0.285156 70.035156 0 69.703125 0 L 0.921875 0 C 0.597656 0 0.4375 -0.164062 0.4375 -0.5 Z M 0.4375 -0.5 "/></g></g><g style="fill:#0b1320;fill-opacity:1;"><g transform="translate(752.692004, 224.351654)"><path style="stroke:none" d="M 52.796875 -49.828125 C 52.796875 -46.941406 51.128906 -45.5 47.796875 -45.5 C 46.109375 -45.5 44.675781 -45.984375 43.5 -46.953125 C 42.320312 -47.921875 41.414062 -48.742188 40.78125 -49.421875 C 40.144531 -50.109375 39.476562 -50.738281 38.78125 -51.3125 C 35.8125 -53.738281 32.195312 -54.003906 27.9375 -52.109375 C 23.675781 -50.210938 20.394531 -46.179688 18.09375 -40.015625 C 16.8125 -36.597656 16.171875 -33.203125 16.171875 -29.828125 C 16.171875 -22.578125 17.816406 -16.65625 21.109375 -12.0625 C 24.410156 -7.476562 29.457031 -5.1875 36.25 -5.1875 C 41.3125 -5.1875 45.859375 -7.453125 49.890625 -11.984375 C 51.117188 -13.335938 51.859375 -14.015625 52.109375 -14.015625 C 52.359375 -14.015625 52.625 -13.890625 52.90625 -13.640625 C 53.195312 -13.398438 53.34375 -13.039062 53.34375 -12.5625 C 53.34375 -12.09375 53.222656 -11.734375 52.984375 -11.484375 C 46.679688 -2.710938 38.753906 1.671875 29.203125 1.671875 C 22.285156 1.671875 16.613281 -0.898438 12.1875 -6.046875 C 7.769531 -11.191406 5.5625 -17.078125 5.5625 -23.703125 C 5.601562 -35.972656 8.566406 -44.804688 14.453125 -50.203125 C 19.640625 -54.929688 27.023438 -57.296875 36.609375 -57.296875 C 42.535156 -57.296875 46.46875 -56.695312 48.40625 -55.5 C 50.34375 -54.3125 51.703125 -52.8125 52.484375 -51 C 52.691406 -50.59375 52.796875 -50.203125 52.796875 -49.828125 Z M 52.796875 -49.828125 "/></g></g><g style="fill:#0b1320;fill-opacity:1;"><g transform="translate(807.188696, 224.351654)"><path style="stroke:none" d="M 21.0625 -47.796875 C 21.0625 -46.804688 21.203125 -46.3125 21.484375 -46.3125 C 21.773438 -46.3125 21.984375 -46.378906 22.109375 -46.515625 C 22.234375 -46.660156 23.097656 -47.617188 24.703125 -49.390625 C 29.347656 -54.578125 34.0625 -57.171875 38.84375 -57.171875 C 45.09375 -57.171875 49.679688 -55.773438 52.609375 -52.984375 C 56.191406 -49.441406 57.984375 -43.488281 57.984375 -35.125 L 57.984375 -9.390625 C 57.984375 -5.347656 60.203125 -3 64.640625 -2.34375 C 66.578125 -2.09375 67.546875 -1.660156 67.546875 -1.046875 C 67.546875 -0.429688 67.34375 -0.0820312 66.9375 0 L 39.390625 0 C 38.984375 -0.0820312 38.78125 -0.367188 38.78125 -0.859375 C 38.78125 -1.597656 39.742188 -2.09375 41.671875 -2.34375 C 46.117188 -3 48.34375 -5.347656 48.34375 -9.390625 L 48.34375 -34.515625 C 48.34375 -40.566406 47.910156 -44.5 47.046875 -46.3125 C 45.398438 -49.925781 41.960938 -51.734375 36.734375 -51.734375 C 33.523438 -51.734375 30.109375 -50.363281 26.484375 -47.625 C 22.867188 -44.894531 21.0625 -41.882812 21.0625 -38.59375 L 21.0625 -9.390625 C 21.0625 -5.347656 23.28125 -3 27.71875 -2.34375 C 29.65625 -2.09375 30.625 -1.660156 30.625 -1.046875 C 30.625 -0.429688 30.421875 -0.0820312 30.015625 0 L 2.46875 0 C 2.0625 -0.0820312 1.859375 -0.367188 1.859375 -0.859375 C 1.859375 -1.597656 2.820312 -2.09375 4.75 -2.34375 C 9.195312 -3 11.421875 -5.347656 11.421875 -9.390625 L 11.421875 -86.375 C 11.421875 -88.101562 10.472656 -89.300781 8.578125 -89.96875 C 7.753906 -90.25 6.867188 -90.484375 5.921875 -90.671875 C 4.972656 -90.859375 4.222656 -91.03125 3.671875 -91.1875 C 3.117188 -91.351562 2.769531 -91.507812 2.625 -91.65625 C 2.476562 -91.800781 2.40625 -92.109375 2.40625 -92.578125 C 2.40625 -93.054688 2.710938 -93.460938 3.328125 -93.796875 L 19.078125 -101.203125 C 19.566406 -101.441406 19.875 -101.5625 20 -101.5625 C 20.707031 -101.5625 21.0625 -101.070312 21.0625 -100.09375 Z M 21.0625 -47.796875 "/></g></g><g style="fill:#0b1320;fill-opacity:1;"><g transform="translate(873.414672, 224.351654)"><path style="stroke:none" d="M 4.625 -27.75 C 4.625 -35.84375 7.492188 -42.800781 13.234375 -48.625 C 18.984375 -54.445312 25.867188 -57.359375 33.890625 -57.359375 C 41.921875 -57.359375 48.898438 -54.523438 54.828125 -48.859375 C 60.753906 -43.203125 63.71875 -36.21875 63.71875 -27.90625 C 63.71875 -19.59375 60.90625 -12.582031 55.28125 -6.875 C 49.664062 -1.175781 42.617188 1.671875 34.140625 1.671875 C 25.660156 1.671875 18.617188 -1.207031 13.015625 -6.96875 C 7.421875 -12.738281 4.625 -19.664062 4.625 -27.75 Z M 20 -11.859375 C 24.039062 -5.066406 29.535156 -1.671875 36.484375 -1.671875 C 41.878906 -1.671875 46.003906 -3.832031 48.859375 -8.15625 C 51.722656 -12.476562 53.15625 -17.785156 53.15625 -24.078125 C 53.15625 -30.378906 51.148438 -36.84375 47.140625 -43.46875 C 43.128906 -50.09375 37.726562 -53.40625 30.9375 -53.40625 C 25.957031 -53.40625 22.035156 -51.253906 19.171875 -46.953125 C 16.304688 -42.648438 14.875 -37.195312 14.875 -30.59375 C 14.875 -23.988281 16.582031 -17.742188 20 -11.859375 Z M 20 -11.859375 "/></g></g><g style="fill:#0b1320;fill-opacity:1;"><g transform="translate(938.591184, 224.351654)"><path style="stroke:none" d=""/></g></g><g style="fill:#0b1320;fill-opacity:1;"><g transform="translate(969.382379, 224.351654)"><path style="stroke:none" d="M 32.84375 -0.5 C 32.84375 -0.164062 32.679688 0 32.359375 0 L 0.796875 0 C 0.472656 0 0.3125 -0.164062 0.3125 -0.5 L 0.3125 -1.96875 C 0.3125 -2.300781 0.578125 -2.46875 1.109375 -2.46875 C 6.753906 -2.71875 10.5625 -5.722656 12.53125 -11.484375 L 37.71875 -84.40625 C 37.757812 -84.488281 37.78125 -84.59375 37.78125 -84.71875 L 37.109375 -86.75 C 37.109375 -86.957031 37.191406 -87.0625 37.359375 -87.0625 L 49.703125 -87.0625 C 49.785156 -87.019531 49.898438 -86.976562 50.046875 -86.9375 C 50.191406 -86.894531 50.304688 -86.769531 50.390625 -86.5625 L 76.5 -13.28125 C 77.070312 -12.164062 77.535156 -11.15625 77.890625 -10.25 C 78.242188 -9.34375 78.644531 -8.519531 79.09375 -7.78125 C 80.082031 -6.09375 81.707031 -4.796875 83.96875 -3.890625 C 85.863281 -2.941406 87.59375 -2.46875 89.15625 -2.46875 C 89.488281 -2.46875 89.65625 -2.285156 89.65625 -1.921875 L 89.65625 -0.5 C 89.65625 -0.164062 89.488281 0 89.15625 0 L 51.375 0 C 51.039062 0 50.875 -0.164062 50.875 -0.5 L 50.875 -1.96875 C 50.875 -2.300781 51.632812 -2.507812 53.15625 -2.59375 C 54.6875 -2.675781 55.941406 -2.757812 56.921875 -2.84375 C 62.648438 -3.457031 65.515625 -5.390625 65.515625 -8.640625 C 65.515625 -8.890625 65.472656 -9.179688 65.390625 -9.515625 L 56.0625 -35.8125 C 56.019531 -35.894531 55.9375 -36.082031 55.8125 -36.375 C 55.320312 -37.769531 54.457031 -38.46875 53.21875 -38.46875 L 31.296875 -38.46875 C 30.066406 -38.46875 29.101562 -37.785156 28.40625 -36.421875 C 28.28125 -36.140625 28.21875 -35.976562 28.21875 -35.9375 L 18.953125 -8.828125 L 18.953125 -8.28125 C 18.953125 -7.207031 19.507812 -6.238281 20.625 -5.375 C 23.132812 -3.4375 26.507812 -2.46875 30.75 -2.46875 L 32.359375 -2.46875 C 32.679688 -2.46875 32.84375 -2.300781 32.84375 -1.96875 Z M 51.125 -45.328125 C 51.863281 -45.328125 52.234375 -45.632812 52.234375 -46.25 C 52.234375 -46.570312 52.148438 -46.941406 51.984375 -47.359375 L 42.796875 -72.671875 C 42.378906 -73.785156 42.066406 -74.34375 41.859375 -74.34375 C 41.648438 -74.34375 41.320312 -73.765625 40.875 -72.609375 L 32.234375 -47.359375 C 32.066406 -46.941406 31.984375 -46.5 31.984375 -46.03125 C 31.984375 -45.5625 32.289062 -45.328125 32.90625 -45.328125 Z M 51.125 -45.328125 "/></g></g><g style="fill:#0b1320;fill-opacity:1;"><g transform="translate(1056.165466, 224.351654)"><path style="stroke:none" d="M 15.5625 -77.1875 C 15.5625 -82.125 12.71875 -84.59375 7.03125 -84.59375 C 6.132812 -84.59375 5.6875 -84.753906 5.6875 -85.078125 L 5.6875 -86.5625 C 5.6875 -86.894531 5.847656 -87.0625 6.171875 -87.0625 L 37.109375 -87.0625 C 37.441406 -87.0625 37.609375 -86.894531 37.609375 -86.5625 L 37.609375 -85.078125 C 37.609375 -84.753906 36.703125 -84.59375 34.890625 -84.59375 C 33.078125 -84.59375 31.40625 -84.015625 29.875 -82.859375 C 28.351562 -81.703125 27.59375 -79.335938 27.59375 -75.765625 L 27.59375 -9.875 C 27.59375 -4.9375 30.457031 -2.46875 36.1875 -2.46875 C 37.050781 -2.46875 37.484375 -2.300781 37.484375 -1.96875 L 37.484375 -0.5 C 37.484375 -0.164062 37.316406 0 36.984375 0 L 6.046875 0 C 5.722656 0 5.5625 -0.164062 5.5625 -0.5 L 5.5625 -1.96875 C 5.5625 -2.300781 6.460938 -2.46875 8.265625 -2.46875 C 10.078125 -2.46875 11.742188 -3.039062 13.265625 -4.1875 C 14.796875 -5.34375 15.5625 -7.710938 15.5625 -11.296875 Z M 15.5625 -77.1875 "/></g></g><g clip-rule="nonzero" clip-path="url(#4e61ab1d06)"><path style=" stroke:none;fill-rule:nonzero;fill:#0b1320;fill-opacity:1;" d="M 90.078125 85.679688 L 143.265625 85.679688 L 143.265625 249.613281 L 90.078125 249.613281 Z M 90.078125 85.679688 "/></g><g clip-rule="nonzero" clip-path="url(#c8135b08ae)"><path style=" stroke:none;fill-rule:nonzero;fill:#0b1320;fill-opacity:1;" d="M 227.371094 85.679688 L 280.5625 85.679688 L 280.5625 249.613281 L 227.371094 249.613281 Z M 227.371094 85.679688 "/></g><g clip-rule="nonzero" clip-path="url(#b8eb798837)"><path style=" stroke:none;fill-rule:nonzero;fill:#0b1320;fill-opacity:1;" d="M 280.554688 141.035156 L 280.554688 194.226562 L 116.621094 194.226562 L 116.621094 141.035156 Z M 280.554688 141.035156 "/></g><g clip-rule="nonzero" clip-path="url(#09986a9ffc)"><path style=" stroke:none;fill-rule:nonzero;fill:#f3f6fa;fill-opacity:1;" d="M 94.96875 91.5625 L 148.160156 91.5625 L 148.160156 255.492188 L 94.96875 255.492188 Z M 94.96875 91.5625 "/></g><g clip-rule="nonzero" clip-path="url(#27753d6593)"><path style=" stroke:none;fill-rule:nonzero;fill:#f3f6fa;fill-opacity:1;" d="M 232.265625 91.5625 L 285.457031 91.5625 L 285.457031 255.492188 L 232.265625 255.492188 Z M 232.265625 91.5625 "/></g><g clip-rule="nonzero" clip-path="url(#db0737cb8e)"><path style=" stroke:none;fill-rule:nonzero;fill:#f3f6fa;fill-opacity:1;" d="M 285.449219 146.914062 L 285.449219 200.105469 L 121.515625 200.105469 L 121.515625 146.914062 Z M 285.449219 146.914062 "/></g><g clip-rule="nonzero" clip-path="url(#5290941520)"><path style=" stroke:none;fill-rule:nonzero;fill:#0b1320;fill-opacity:1;" d="M 103.726562 99.386719 L 156.917969 99.386719 L 156.917969 263.320312 L 103.726562 263.320312 Z M 103.726562 99.386719 "/></g><g clip-rule="nonzero" clip-path="url(#35c6e2bd3b)"><path style=" stroke:none;fill-rule:nonzero;fill:#0b1320;fill-opacity:1;" d="M 241.023438 99.386719 L 294.210938 99.386719 L 294.210938 263.320312 L 241.023438 263.320312 Z M 241.023438 99.386719 "/></g><g clip-rule="nonzero" clip-path="url(#1050ce5552)"><path style=" stroke:none;fill-rule:nonzero;fill:#0b1320;fill-opacity:1;" d="M 294.207031 154.742188 L 294.207031 207.933594 L 130.273438 207.933594 L 130.273438 154.742188 Z M 294.207031 154.742188 "/></g></g></svg>